<svg width="156" height="41" viewBox="0 0 156 41" fill="none" xmlns="http://www.w3.org/2000/svg">
<path d="M30.8448 0.701172H10.8448C5.322 0.701172 0.844849 5.17832 0.844849 10.7012V30.7012C0.844849 36.224 5.322 40.7012 10.8448 40.7012H30.8448C36.3677 40.7012 40.8448 36.224 40.8448 30.7012V10.7012C40.8448 5.17832 36.3677 0.701172 30.8448 0.701172Z" fill="#D62829"/>
<path d="M9.84473 33.6553C8.74016 33.6553 7.84473 32.7599 7.84473 31.6553V9.70117C7.84473 8.5966 8.74016 7.70117 9.84473 7.70117H31.8447C32.9493 7.70117 33.8447 8.5966 33.8447 9.70117V31.6964C33.8447 32.8001 32.9507 33.6951 31.8471 33.6964L29.7916 33.6988C28.6863 33.7001 27.7895 32.8045 27.7893 31.6992L27.7865 16.1159C27.7863 15.0115 26.8909 14.1163 25.7865 14.1163H13.9645C12.86 14.1163 11.9645 15.0117 11.9645 16.1163V16.7777C11.9645 17.8604 12.8422 18.7381 13.9249 18.7381C15.0076 18.7381 15.8853 17.8604 15.8853 16.7777V14.7231C15.8853 13.1185 17.68 12.1672 19.008 13.068L19.1279 13.1493C19.6766 13.5215 20.0052 14.1414 20.0052 14.8045V31.6553C20.0052 32.7599 19.1098 33.6553 18.0052 33.6553H9.84473Z" fill="white"/>
<path d="M55.6857 9.37305V30.7012H50.9249V9.37305H55.6857ZM63.8888 18.543V30.7012H59.3185V14.8516H63.6105L63.8888 18.543ZM68.6202 14.7344L68.547 18.9971C68.3517 18.9678 68.0978 18.9434 67.7853 18.9238C67.4728 18.8945 67.2042 18.8799 66.9796 18.8799C66.3937 18.8799 65.8859 18.9531 65.4562 19.0996C65.0363 19.2363 64.6847 19.4414 64.4015 19.7148C64.1281 19.9883 63.923 20.3301 63.7863 20.7402C63.6495 21.1406 63.5812 21.6045 63.5812 22.1318L62.7169 21.707C62.7169 20.6621 62.8195 19.7051 63.0245 18.8359C63.2296 17.9668 63.5275 17.2148 63.9181 16.5801C64.3087 15.9355 64.7872 15.4375 65.3536 15.0859C65.92 14.7344 66.5646 14.5586 67.2872 14.5586C67.5216 14.5586 67.7609 14.5732 68.005 14.6025C68.2491 14.6318 68.4542 14.6758 68.6202 14.7344ZM69.338 22.9375V22.6299C69.338 21.4678 69.504 20.3984 69.8361 19.4219C70.1681 18.4355 70.6564 17.5811 71.3009 16.8584C71.9454 16.1357 72.7365 15.5742 73.674 15.1738C74.6115 14.7637 75.6857 14.5586 76.8966 14.5586C78.1271 14.5586 79.2111 14.7637 80.1486 15.1738C81.0958 15.5742 81.8917 16.1357 82.5363 16.8584C83.1808 17.5811 83.6691 18.4355 84.0011 19.4219C84.3331 20.3984 84.4991 21.4678 84.4991 22.6299V22.9375C84.4991 24.0898 84.3331 25.1592 84.0011 26.1455C83.6691 27.1221 83.1808 27.9766 82.5363 28.709C81.8917 29.4316 81.1007 29.9932 80.1632 30.3936C79.2257 30.7939 78.1466 30.9941 76.9259 30.9941C75.715 30.9941 74.6359 30.7939 73.6886 30.3936C72.7413 29.9932 71.9454 29.4316 71.3009 28.709C70.6564 27.9766 70.1681 27.1221 69.8361 26.1455C69.504 25.1592 69.338 24.0898 69.338 22.9375ZM73.923 22.6299V22.9375C73.923 23.5625 73.9718 24.1484 74.0695 24.6953C74.1769 25.2422 74.3478 25.7207 74.5822 26.1309C74.8165 26.541 75.1241 26.8633 75.505 27.0977C75.8956 27.3223 76.3693 27.4346 76.9259 27.4346C77.4825 27.4346 77.9513 27.3223 78.3322 27.0977C78.713 26.8633 79.0206 26.541 79.255 26.1309C79.4894 25.7207 79.6554 25.2422 79.7531 24.6953C79.8605 24.1484 79.9142 23.5625 79.9142 22.9375V22.6299C79.9142 22.0146 79.8605 21.4385 79.7531 20.9014C79.6554 20.3545 79.4894 19.8711 79.255 19.4512C79.0206 19.0312 78.7081 18.7041 78.3175 18.4697C77.9366 18.2354 77.463 18.1182 76.8966 18.1182C76.3497 18.1182 75.8859 18.2354 75.505 18.4697C75.1241 18.7041 74.8165 19.0312 74.5822 19.4512C74.3478 19.8711 74.1769 20.3545 74.0695 20.9014C73.9718 21.4385 73.923 22.0146 73.923 22.6299ZM91.3839 18.2354V30.7012H86.799V14.8516H91.1056L91.3839 18.2354ZM90.7833 22.2197L89.6407 22.249C89.6407 21.0576 89.7872 19.9883 90.0802 19.041C90.3732 18.0938 90.7882 17.2881 91.3253 16.624C91.8722 15.9502 92.5216 15.4375 93.2736 15.0859C94.0353 14.7344 94.8751 14.5586 95.7931 14.5586C96.5353 14.5586 97.214 14.666 97.8292 14.8809C98.4445 15.0957 98.9718 15.4424 99.4113 15.9209C99.8605 16.3896 100.202 17.0146 100.437 17.7959C100.671 18.5674 100.788 19.5195 100.788 20.6523V30.7012H96.1886V20.6377C96.1886 19.9736 96.0958 19.4609 95.9103 19.0996C95.7247 18.7383 95.4513 18.4844 95.09 18.3379C94.7384 18.1914 94.3087 18.1182 93.8009 18.1182C93.2638 18.1182 92.8048 18.2256 92.424 18.4404C92.0431 18.6455 91.7306 18.9336 91.4865 19.3047C91.2423 19.6758 91.0616 20.1104 90.9445 20.6084C90.837 21.1064 90.7833 21.6436 90.7833 22.2197ZM116.272 23.5527H121.018C120.94 25.0176 120.539 26.3115 119.817 27.4346C119.104 28.5479 118.112 29.4219 116.843 30.0566C115.573 30.6816 114.065 30.9941 112.317 30.9941C110.92 30.9941 109.67 30.7549 108.567 30.2764C107.463 29.7979 106.526 29.1143 105.754 28.2256C104.992 27.3271 104.406 26.248 103.996 24.9883C103.596 23.7188 103.396 22.2881 103.396 20.6963V19.3926C103.396 17.8008 103.606 16.3701 104.026 15.1006C104.445 13.8311 105.046 12.7471 105.827 11.8486C106.609 10.9502 107.546 10.2617 108.64 9.7832C109.734 9.30469 110.954 9.06543 112.302 9.06543C114.118 9.06543 115.651 9.39258 116.901 10.0469C118.151 10.7012 119.118 11.5996 119.802 12.7422C120.495 13.8848 120.91 15.1885 121.047 16.6533H116.286C116.247 15.8232 116.091 15.125 115.818 14.5586C115.544 13.9824 115.124 13.5479 114.558 13.2549C113.991 12.9619 113.239 12.8154 112.302 12.8154C111.618 12.8154 111.018 12.9424 110.5 13.1963C109.992 13.4502 109.568 13.8457 109.226 14.3828C108.894 14.9199 108.645 15.6035 108.479 16.4336C108.313 17.2539 108.23 18.2305 108.23 19.3633V20.6963C108.23 21.8193 108.303 22.791 108.449 23.6113C108.596 24.4316 108.83 25.1104 109.152 25.6475C109.484 26.1846 109.909 26.585 110.427 26.8486C110.944 27.1123 111.574 27.2441 112.317 27.2441C113.166 27.2441 113.874 27.1123 114.441 26.8486C115.007 26.5752 115.442 26.165 115.744 25.6182C116.047 25.0713 116.223 24.3828 116.272 23.5527ZM122.776 22.9375V22.6299C122.776 21.4678 122.942 20.3984 123.274 19.4219C123.606 18.4355 124.094 17.5811 124.738 16.8584C125.383 16.1357 126.174 15.5742 127.111 15.1738C128.049 14.7637 129.123 14.5586 130.334 14.5586C131.565 14.5586 132.649 14.7637 133.586 15.1738C134.533 15.5742 135.329 16.1357 135.974 16.8584C136.618 17.5811 137.107 18.4355 137.439 19.4219C137.771 20.3984 137.937 21.4678 137.937 22.6299V22.9375C137.937 24.0898 137.771 25.1592 137.439 26.1455C137.107 27.1221 136.618 27.9766 135.974 28.709C135.329 29.4316 134.538 29.9932 133.601 30.3936C132.663 30.7939 131.584 30.9941 130.363 30.9941C129.152 30.9941 128.073 30.7939 127.126 30.3936C126.179 29.9932 125.383 29.4316 124.738 28.709C124.094 27.9766 123.606 27.1221 123.274 26.1455C122.942 25.1592 122.776 24.0898 122.776 22.9375ZM127.36 22.6299V22.9375C127.36 23.5625 127.409 24.1484 127.507 24.6953C127.614 25.2422 127.785 25.7207 128.02 26.1309C128.254 26.541 128.562 26.8633 128.943 27.0977C129.333 27.3223 129.807 27.4346 130.363 27.4346C130.92 27.4346 131.389 27.3223 131.77 27.0977C132.151 26.8633 132.458 26.541 132.693 26.1309C132.927 25.7207 133.093 25.2422 133.191 24.6953C133.298 24.1484 133.352 23.5625 133.352 22.9375V22.6299C133.352 22.0146 133.298 21.4385 133.191 20.9014C133.093 20.3545 132.927 19.8711 132.693 19.4512C132.458 19.0312 132.146 18.7041 131.755 18.4697C131.374 18.2354 130.901 18.1182 130.334 18.1182C129.787 18.1182 129.323 18.2354 128.943 18.4697C128.562 18.7041 128.254 19.0312 128.02 19.4512C127.785 19.8711 127.614 20.3545 127.507 20.9014C127.409 21.4385 127.36 22.0146 127.36 22.6299ZM144.821 18.2354V30.7012H140.236V14.8516H144.543L144.821 18.2354ZM144.221 22.2197L143.078 22.249C143.078 21.0576 143.225 19.9883 143.518 19.041C143.811 18.0938 144.226 17.2881 144.763 16.624C145.31 15.9502 145.959 15.4375 146.711 15.0859C147.473 14.7344 148.313 14.5586 149.231 14.5586C149.973 14.5586 150.651 14.666 151.267 14.8809C151.882 15.0957 152.409 15.4424 152.849 15.9209C153.298 16.3896 153.64 17.0146 153.874 17.7959C154.109 18.5674 154.226 19.5195 154.226 20.6523V30.7012H149.626V20.6377C149.626 19.9736 149.533 19.4609 149.348 19.0996C149.162 18.7383 148.889 18.4844 148.527 18.3379C148.176 18.1914 147.746 18.1182 147.238 18.1182C146.701 18.1182 146.242 18.2256 145.861 18.4404C145.481 18.6455 145.168 18.9336 144.924 19.3047C144.68 19.6758 144.499 20.1104 144.382 20.6084C144.275 21.1064 144.221 21.6436 144.221 22.2197Z" fill="white"/>
</svg>
