<svg width="155" height="40" viewBox="0 0 155 40" fill="none" xmlns="http://www.w3.org/2000/svg">
<path d="M30 0H10C4.47715 0 0 4.47715 0 10V30C0 35.5228 4.47715 40 10 40H30C35.5228 40 40 35.5228 40 30V10C40 4.47715 35.5228 0 30 0Z" fill="#D62829"/>
<path d="M9 32.9542C7.89543 32.9542 7 32.0587 7 30.9542V9C7 7.89543 7.89543 7 9 7H31C32.1046 7 33 7.89543 33 9V30.9953C33 32.0989 32.106 32.994 31.0023 32.9953L28.9469 32.9977C27.8415 32.999 26.9447 32.1034 26.9445 30.998L26.9418 15.4148C26.9416 14.3103 26.0462 13.4151 24.9418 13.4151H13.1198C12.0152 13.4151 11.1198 14.3106 11.1198 15.4151V16.0765C11.1198 17.1592 11.9975 18.0369 13.0802 18.0369C14.1629 18.0369 15.0406 17.1592 15.0406 16.0765V14.022C15.0406 12.4173 16.8352 11.466 18.1632 12.3668L18.2832 12.4481C18.8319 12.8203 19.1605 13.4403 19.1605 14.1033V30.9542C19.1605 32.0587 18.2651 32.9542 17.1605 32.9542H9Z" fill="white"/>
<path d="M54.8408 8.67188V30H50.0801V8.67188H54.8408ZM63.0439 17.8418V30H58.4736V14.1504H62.7656L63.0439 17.8418ZM67.7754 14.0332L67.7021 18.2959C67.5068 18.2666 67.2529 18.2422 66.9404 18.2227C66.6279 18.1934 66.3594 18.1787 66.1348 18.1787C65.5488 18.1787 65.041 18.252 64.6113 18.3984C64.1914 18.5352 63.8398 18.7402 63.5566 19.0137C63.2832 19.2871 63.0781 19.6289 62.9414 20.0391C62.8047 20.4395 62.7363 20.9033 62.7363 21.4307L61.8721 21.0059C61.8721 19.9609 61.9746 19.0039 62.1797 18.1348C62.3848 17.2656 62.6826 16.5137 63.0732 15.8789C63.4639 15.2344 63.9424 14.7363 64.5088 14.3848C65.0752 14.0332 65.7197 13.8574 66.4424 13.8574C66.6768 13.8574 66.916 13.8721 67.1602 13.9014C67.4043 13.9307 67.6094 13.9746 67.7754 14.0332ZM68.4932 22.2363V21.9287C68.4932 20.7666 68.6592 19.6973 68.9912 18.7207C69.3232 17.7344 69.8115 16.8799 70.4561 16.1572C71.1006 15.4346 71.8916 14.873 72.8291 14.4727C73.7666 14.0625 74.8408 13.8574 76.0518 13.8574C77.2822 13.8574 78.3662 14.0625 79.3037 14.4727C80.251 14.873 81.0469 15.4346 81.6914 16.1572C82.3359 16.8799 82.8242 17.7344 83.1562 18.7207C83.4883 19.6973 83.6543 20.7666 83.6543 21.9287V22.2363C83.6543 23.3887 83.4883 24.458 83.1562 25.4443C82.8242 26.4209 82.3359 27.2754 81.6914 28.0078C81.0469 28.7305 80.2559 29.292 79.3184 29.6924C78.3809 30.0928 77.3018 30.293 76.0811 30.293C74.8701 30.293 73.791 30.0928 72.8438 29.6924C71.8965 29.292 71.1006 28.7305 70.4561 28.0078C69.8115 27.2754 69.3232 26.4209 68.9912 25.4443C68.6592 24.458 68.4932 23.3887 68.4932 22.2363ZM73.0781 21.9287V22.2363C73.0781 22.8613 73.127 23.4473 73.2246 23.9941C73.332 24.541 73.5029 25.0195 73.7373 25.4297C73.9717 25.8398 74.2793 26.1621 74.6602 26.3965C75.0508 26.6211 75.5244 26.7334 76.0811 26.7334C76.6377 26.7334 77.1064 26.6211 77.4873 26.3965C77.8682 26.1621 78.1758 25.8398 78.4102 25.4297C78.6445 25.0195 78.8105 24.541 78.9082 23.9941C79.0156 23.4473 79.0693 22.8613 79.0693 22.2363V21.9287C79.0693 21.3135 79.0156 20.7373 78.9082 20.2002C78.8105 19.6533 78.6445 19.1699 78.4102 18.75C78.1758 18.3301 77.8633 18.0029 77.4727 17.7686C77.0918 17.5342 76.6182 17.417 76.0518 17.417C75.5049 17.417 75.041 17.5342 74.6602 17.7686C74.2793 18.0029 73.9717 18.3301 73.7373 18.75C73.5029 19.1699 73.332 19.6533 73.2246 20.2002C73.127 20.7373 73.0781 21.3135 73.0781 21.9287ZM90.5391 17.5342V30H85.9541V14.1504H90.2607L90.5391 17.5342ZM89.9385 21.5186L88.7959 21.5479C88.7959 20.3564 88.9424 19.2871 89.2354 18.3398C89.5283 17.3926 89.9434 16.5869 90.4805 15.9229C91.0273 15.249 91.6768 14.7363 92.4287 14.3848C93.1904 14.0332 94.0303 13.8574 94.9482 13.8574C95.6904 13.8574 96.3691 13.9648 96.9844 14.1797C97.5996 14.3945 98.127 14.7412 98.5664 15.2197C99.0156 15.6885 99.3574 16.3135 99.5918 17.0947C99.8262 17.8662 99.9434 18.8184 99.9434 19.9512V30H95.3438V19.9365C95.3438 19.2725 95.251 18.7598 95.0654 18.3984C94.8799 18.0371 94.6064 17.7832 94.2451 17.6367C93.8936 17.4902 93.4639 17.417 92.9561 17.417C92.4189 17.417 91.96 17.5244 91.5791 17.7393C91.1982 17.9443 90.8857 18.2324 90.6416 18.6035C90.3975 18.9746 90.2168 19.4092 90.0996 19.9072C89.9922 20.4053 89.9385 20.9424 89.9385 21.5186ZM115.427 22.8516H120.173C120.095 24.3164 119.694 25.6104 118.972 26.7334C118.259 27.8467 117.268 28.7207 115.998 29.3555C114.729 29.9805 113.22 30.293 111.472 30.293C110.075 30.293 108.825 30.0537 107.722 29.5752C106.618 29.0967 105.681 28.4131 104.909 27.5244C104.147 26.626 103.562 25.5469 103.151 24.2871C102.751 23.0176 102.551 21.5869 102.551 19.9951V18.6914C102.551 17.0996 102.761 15.6689 103.181 14.3994C103.601 13.1299 104.201 12.0459 104.982 11.1475C105.764 10.249 106.701 9.56055 107.795 9.08203C108.889 8.60352 110.109 8.36426 111.457 8.36426C113.273 8.36426 114.807 8.69141 116.057 9.3457C117.307 10 118.273 10.8984 118.957 12.041C119.65 13.1836 120.065 14.4873 120.202 15.9521H115.441C115.402 15.1221 115.246 14.4238 114.973 13.8574C114.699 13.2812 114.279 12.8467 113.713 12.5537C113.146 12.2607 112.395 12.1143 111.457 12.1143C110.773 12.1143 110.173 12.2412 109.655 12.4951C109.147 12.749 108.723 13.1445 108.381 13.6816C108.049 14.2188 107.8 14.9023 107.634 15.7324C107.468 16.5527 107.385 17.5293 107.385 18.6621V19.9951C107.385 21.1182 107.458 22.0898 107.604 22.9102C107.751 23.7305 107.985 24.4092 108.308 24.9463C108.64 25.4834 109.064 25.8838 109.582 26.1475C110.1 26.4111 110.729 26.543 111.472 26.543C112.321 26.543 113.029 26.4111 113.596 26.1475C114.162 25.874 114.597 25.4639 114.899 24.917C115.202 24.3701 115.378 23.6816 115.427 22.8516ZM121.931 22.2363V21.9287C121.931 20.7666 122.097 19.6973 122.429 18.7207C122.761 17.7344 123.249 16.8799 123.894 16.1572C124.538 15.4346 125.329 14.873 126.267 14.4727C127.204 14.0625 128.278 13.8574 129.489 13.8574C130.72 13.8574 131.804 14.0625 132.741 14.4727C133.688 14.873 134.484 15.4346 135.129 16.1572C135.773 16.8799 136.262 17.7344 136.594 18.7207C136.926 19.6973 137.092 20.7666 137.092 21.9287V22.2363C137.092 23.3887 136.926 24.458 136.594 25.4443C136.262 26.4209 135.773 27.2754 135.129 28.0078C134.484 28.7305 133.693 29.292 132.756 29.6924C131.818 30.0928 130.739 30.293 129.519 30.293C128.308 30.293 127.229 30.0928 126.281 29.6924C125.334 29.292 124.538 28.7305 123.894 28.0078C123.249 27.2754 122.761 26.4209 122.429 25.4443C122.097 24.458 121.931 23.3887 121.931 22.2363ZM126.516 21.9287V22.2363C126.516 22.8613 126.564 23.4473 126.662 23.9941C126.77 24.541 126.94 25.0195 127.175 25.4297C127.409 25.8398 127.717 26.1621 128.098 26.3965C128.488 26.6211 128.962 26.7334 129.519 26.7334C130.075 26.7334 130.544 26.6211 130.925 26.3965C131.306 26.1621 131.613 25.8398 131.848 25.4297C132.082 25.0195 132.248 24.541 132.346 23.9941C132.453 23.4473 132.507 22.8613 132.507 22.2363V21.9287C132.507 21.3135 132.453 20.7373 132.346 20.2002C132.248 19.6533 132.082 19.1699 131.848 18.75C131.613 18.3301 131.301 18.0029 130.91 17.7686C130.529 17.5342 130.056 17.417 129.489 17.417C128.942 17.417 128.479 17.5342 128.098 17.7686C127.717 18.0029 127.409 18.3301 127.175 18.75C126.94 19.1699 126.77 19.6533 126.662 20.2002C126.564 20.7373 126.516 21.3135 126.516 21.9287ZM143.977 17.5342V30H139.392V14.1504H143.698L143.977 17.5342ZM143.376 21.5186L142.233 21.5479C142.233 20.3564 142.38 19.2871 142.673 18.3398C142.966 17.3926 143.381 16.5869 143.918 15.9229C144.465 15.249 145.114 14.7363 145.866 14.3848C146.628 14.0332 147.468 13.8574 148.386 13.8574C149.128 13.8574 149.807 13.9648 150.422 14.1797C151.037 14.3945 151.564 14.7412 152.004 15.2197C152.453 15.6885 152.795 16.3135 153.029 17.0947C153.264 17.8662 153.381 18.8184 153.381 19.9512V30H148.781V19.9365C148.781 19.2725 148.688 18.7598 148.503 18.3984C148.317 18.0371 148.044 17.7832 147.683 17.6367C147.331 17.4902 146.901 17.417 146.394 17.417C145.856 17.417 145.397 17.5244 145.017 17.7393C144.636 17.9443 144.323 18.2324 144.079 18.6035C143.835 18.9746 143.654 19.4092 143.537 19.9072C143.43 20.4053 143.376 20.9424 143.376 21.5186Z" fill="#002F49"/>
</svg>
